<?xml version="1.0" encoding="UTF-8" standalone="no"?>
<!-- Created with Inkscape (http://www.inkscape.org/) -->
<svg id="svg2" xmlns:rdf="http://www.w3.org/1999/02/22-rdf-syntax-ns#" xmlns="http://www.w3.org/2000/svg" xml:space="preserve" height="360" width="1210" version="1.1" xmlns:cc="http://creativecommons.org/ns#" xmlns:dc="http://purl.org/dc/elements/1.1/"><metadata id="metadata8"><rdf:RDF><cc:Work rdf:about=""><dc:format>image/svg+xml</dc:format><dc:type rdf:resource="http://purl.org/dc/dcmitype/StillImage"/><dc:title/></cc:Work></rdf:RDF></metadata><defs id="defs6"><clipPath id="clipPath100" clipPathUnits="userSpaceOnUse"><path id="path102" d="m0,169.66,6727.6,0,0,2708.5h-6727.6v-2708.5z"/></clipPath><clipPath id="clipPath110" clipPathUnits="userSpaceOnUse"><path id="path112" d="m2344,2309.7,4383.6,0,0-2130.5-4383.6,0,0,2130.5z"/></clipPath><clipPath id="clipPath126" clipPathUnits="userSpaceOnUse"><path id="path128" d="m0,169.66,6727.6,0,0,2708.5h-6727.6v-2708.5z"/></clipPath><clipPath id="clipPath164" clipPathUnits="userSpaceOnUse"><path id="path166" d="m4641.5,2536.2c0.04-0.08,0.08-0.12,0.16-0.19,0.08-0.08,0.2-0.24,0.39-0.43,0.16-0.2,0.35-0.43,0.55-0.71,0.23-0.23,0.47-0.5,0.7-0.82,0.24-0.27,0.51-0.58,0.74-0.89,0.28-0.28,0.51-0.59,0.78-0.86,0.24-0.32,0.47-0.59,0.71-0.86,0.19-0.24,0.39-0.47,0.54-0.67,0.16-0.19,0.32-0.35,0.4-0.47l0.15-0.15s0.51,1.44,0.82,8.71c0.24,5.04,0.43,12.81,0.24,24.8-0.08,9.18-0.36,20.82-0.94,35.59-0.55,15.08-1.6,30.16-3.05,45.19-1.52,15.79-3.44,31.18-5.43,45.32-2.19,15.39-4.45,29.25-6.44,40.54-1.64,9.34-3.48,18.6-5.24,27.93-0.94,5.08-1.68,9.96-3.32,16.29-1.68,6.29-4.29,14.1-8.98,24.96-4.77,10.9-11.6,24.89-21.76,43.68-1.17,2.14-2.34,4.29-3.55,6.56-1.22,2.19-2.43,4.37-3.72,6.52-1.25,2.11-2.42,3.99-3.59,5.67-1.17,1.75-2.26,3.32-3.36,4.64-1.09,1.41-2.11,2.62-3.08,3.64-1.02,1.01-1.96,1.87-2.86,2.54-0.89,0.66-1.72,1.17-2.5,1.48-0.82,0.31-1.52,0.47-2.18,0.47-0.71-0.04-1.33-0.2-1.88-0.55-0.55-0.31-1.05-0.82-1.48-1.4-3.36-4.57-3.36-16.76-0.71-29.03,2.35-10.94,6.45-22.85,15.28-30.04,7.73-6.05,14.65-15.04,21.01-26.79,5.74-10.67,11.06-23.52,16.17-38.52,4.77-14.1,9.34-30.04,13.91-47.69,3.48-13.36,6.02-26.88,7.74-40.59,1.71-13.48,2.81-27.5,3.51-41.06,0.7-13.71,1.02-26.87,1.06-38.55,0.07-12.27-0.08-22.85-0.32-30.59-0.19-8.55-0.47-13.63-0.47-13.67z"/></clipPath><clipPath id="clipPath170" clipPathUnits="userSpaceOnUse"><path id="path172" d="m4560,2878.2,90,0,0-350-90,0,0,350z"/></clipPath><clipPath id="clipPath176" clipPathUnits="userSpaceOnUse"><path id="path178" d="m4560,2878.2,90,0,0-350-90,0,0,350z"/></clipPath><clipPath id="clipPath182" clipPathUnits="userSpaceOnUse"><path id="path184" d="m4560,2878.2,90,0,0-350-90,0,0,350z"/></clipPath><clipPath id="clipPath188" clipPathUnits="userSpaceOnUse"><path id="path190" d="m4560,2878.2,90,0,0-350-90,0,0,350z"/></clipPath><clipPath id="clipPath194" clipPathUnits="userSpaceOnUse"><path id="path196" d="m4560,2878.2,90,0,0-350-90,0,0,350z"/></clipPath><clipPath id="clipPath200" clipPathUnits="userSpaceOnUse"><path id="path202" d="m4560,2878.2,90,0,0-350-90,0,0,350z"/></clipPath><clipPath id="clipPath206" clipPathUnits="userSpaceOnUse"><path id="path208" d="m4641.5,2536.2c0.04-0.08,0.08-0.11,0.16-0.2,0.08-0.07,0.2-0.23,0.39-0.43,0.16-0.19,0.35-0.43,0.55-0.7,0.23-0.23,0.47-0.51,0.7-0.82,0.24-0.27,0.51-0.59,0.74-0.9,0.28-0.27,0.51-0.58,0.78-0.86,0.24-0.31,0.47-0.58,0.71-0.86,0.19-0.23,0.39-0.47,0.54-0.66,0.16-0.2,0.32-0.34,0.4-0.47,0.07-0.08,0.15-0.16,0.15-0.16s0.51,1.45,0.82,8.71c0.24,5.04,0.43,12.82,0.24,24.81-0.08,9.18-0.36,20.82-0.94,35.59-0.55,15.07-1.6,30.15-3.05,45.19-1.52,15.78-3.44,31.17-5.43,45.31-2.19,15.39-4.45,29.26-6.44,40.55-1.64,9.34-3.48,18.59-5.24,27.93-0.94,5.08-1.68,9.96-3.32,16.29-1.68,6.29-4.29,14.1-8.98,24.96-4.77,10.9-11.6,24.88-21.76,43.67-1.17,2.15-2.34,4.3-3.55,6.56-1.22,2.19-2.43,4.38-3.72,6.54-1.25,2.14-2.42,3.97-3.59,5.65-1.17,1.76-2.26,3.32-3.36,4.65-1.09,1.41-2.11,2.62-3.08,3.63-1.02,1.02-1.96,1.88-2.86,2.54-0.89,0.67-1.72,1.17-2.5,1.49-0.82,0.31-1.52,0.47-2.18,0.47-0.71-0.04-1.33-0.2-1.88-0.55-0.55-0.31-1.05-0.82-1.48-1.41-3.36-4.57-3.36-16.76-0.71-29.02,2.35-10.94,6.45-22.81,15.28-30.04,7.73-6.05,14.65-15.04,21.01-26.8,5.74-10.66,11.06-23.47,16.17-38.47,4.77-14.14,9.34-30.08,13.91-47.74,3.48-13.36,6.02-26.87,7.74-40.58,1.71-13.48,2.81-27.5,3.51-41.06,0.7-13.71,1.02-26.87,1.06-38.55,0.07-12.27-0.08-22.85-0.32-30.59-0.19-8.55-0.47-13.62-0.47-13.67"/></clipPath><clipPath id="clipPath212" clipPathUnits="userSpaceOnUse"><path id="path214" d="m4560,2878.2,90,0,0-350-90,0,0,350z"/></clipPath><clipPath id="clipPath218" clipPathUnits="userSpaceOnUse"><path id="path220" d="m4560,2878.2,90,0,0-350-90,0,0,350z"/></clipPath><clipPath id="clipPath224" clipPathUnits="userSpaceOnUse"><path id="path226" d="m4560,2878.2,90,0,0-350-90,0,0,350z"/></clipPath><clipPath id="clipPath432" clipPathUnits="userSpaceOnUse"><path id="path434" d="m0,169.66,6727.6,0,0,2708.5h-6727.6v-2708.5z"/></clipPath><clipPath id="clipPath442" clipPathUnits="userSpaceOnUse"><path id="path444" d="m4763.9,2532.8c0.23-1.72,0.43-3.28,0.66-4.72,0.2-1.45,0.43-2.78,0.59-3.95,0.19-1.17,0.35-2.23,0.54-3.16,0.16-0.94,0.32-1.8,0.47-2.5,0.16-0.75,0.28-1.41,0.39-1.96,0.16-0.5,0.24-0.97,0.36-1.4,0.11-0.35,0.19-0.71,0.27-0.94s0.15-0.43,0.19-0.59c0.04-0.15,0.08-0.23,0.12-0.31l0.08-0.08c3.87,6.45,4.41,7.19,3.16,14.69-0.93,5.74-2.3,14.57-3.67,25.39-1.33,10.16-2.62,22.07-3.63,34.81-0.98,12.42-1.68,25.62-1.72,38.71-0.08,13.2,0.51,26.33,1.99,38.47,1.84,15.47,4.53,30.9,7.54,46.18,2.93,14.92,6.21,28.32,10.04,40.15,4.02,12.54,8.63,23.32,14.06,32.35,5.59,9.25,12.97,16.36,16.45,26.95,3.47,10.66,4.72,23.2,3.75,32.15-0.12,1.13-0.28,2.18-0.47,3.2-0.2,0.98-0.43,1.91-0.66,2.77-0.28,0.86-0.55,1.64-0.9,2.31-0.32,0.7-0.67,1.33-1.02,1.8-0.39,0.54-0.82,0.93-1.29,1.25-0.43,0.31-0.9,0.5-1.44,0.58-0.51,0.08-1.06,0.04-1.64-0.12-0.59-0.15-1.21-0.43-1.84-0.86-0.66-0.43-1.37-1.01-2.03-1.71-0.74-0.71-1.49-1.61-2.23-2.58-8.75-11.53-13.28-26.49-18.4-39.89-5.62-14.72-9.68-26.44-12.73-35.93-3.24-10.28-5.24-17.97-6.45-24.14-1.36-6.53-1.87-11.37-2.22-15.78-0.47-6.22-0.98-12.39-1.45-18.6-0.66-8.47-1.48-20.43-2.19-34.49-0.58-12.23-1.01-26.06-1.17-40.55-0.11-13.63,0.04-27.85,0.71-41.91,0.54-12.35,1.56-24.61,2.69-36.88,1.13-12.5,2.19-21.79,3.09-28.71z"/></clipPath><clipPath id="clipPath448" clipPathUnits="userSpaceOnUse"><path id="path450" d="m4750,2858.2,70,0,0-350-70,0,0,350z"/></clipPath><clipPath id="clipPath454" clipPathUnits="userSpaceOnUse"><path id="path456" d="m4750,2858.2,70,0,0-350-70,0,0,350z"/></clipPath><clipPath id="clipPath460" clipPathUnits="userSpaceOnUse"><path id="path462" d="m4750,2858.2,70,0,0-350-70,0,0,350z"/></clipPath><clipPath id="clipPath466" clipPathUnits="userSpaceOnUse"><path id="path468" d="m4750,2858.2,70,0,0-350-70,0,0,350z"/></clipPath><clipPath id="clipPath472" clipPathUnits="userSpaceOnUse"><path id="path474" d="m4750,2858.2,70,0,0-350-70,0,0,350z"/></clipPath><clipPath id="clipPath478" clipPathUnits="userSpaceOnUse"><path id="path480" d="m4750,2858.2,70,0,0-350-70,0,0,350z"/></clipPath><clipPath id="clipPath484" clipPathUnits="userSpaceOnUse"><path id="path486" d="m4763.9,2532.8c0.23-1.72,0.43-3.28,0.66-4.73,0.2-1.44,0.43-2.77,0.59-3.94,0.19-1.17,0.35-2.23,0.54-3.17,0.16-0.93,0.32-1.79,0.47-2.5,0.16-0.74,0.28-1.36,0.39-1.95,0.16-0.51,0.24-0.98,0.36-1.41,0.11-0.35,0.19-0.7,0.27-0.93,0.08-0.24,0.15-0.43,0.19-0.59s0.08-0.23,0.12-0.31l0.08-0.08c3.87,6.45,4.41,7.2,3.16,14.7-0.93,5.73-2.3,14.57-3.67,25.38-1.33,10.15-2.62,22.07-3.63,34.8-0.98,12.42-1.68,25.64-1.72,38.71-0.08,13.21,0.51,26.33,1.99,38.48,1.84,15.47,4.53,30.9,7.54,46.17,2.93,14.92,6.21,28.32,10.04,40.16,4.02,12.54,8.63,23.32,14.06,32.34,5.59,9.26,12.97,16.37,16.45,26.96,3.47,10.66,4.72,23.2,3.75,32.14-0.12,1.14-0.28,2.19-0.47,3.21-0.2,0.97-0.43,1.91-0.66,2.77-0.28,0.86-0.55,1.64-0.9,2.3-0.32,0.71-0.67,1.33-1.02,1.8-0.39,0.55-0.82,0.94-1.29,1.25-0.43,0.31-0.9,0.51-1.44,0.6-0.51,0.07-1.06,0.03-1.64-0.13-0.59-0.16-1.21-0.43-1.84-0.86-0.66-0.42-1.37-1.01-2.03-1.72-0.74-0.7-1.49-1.6-2.23-2.58-8.75-11.52-13.28-26.48-18.4-39.87-5.62-14.73-9.68-26.45-12.73-35.95-3.24-10.27-5.24-17.96-6.45-24.14-1.36-6.52-1.87-11.36-2.22-15.78-0.47-6.21-0.98-12.38-1.45-18.59-0.66-8.48-1.48-20.43-2.19-34.49-0.58-12.23-1.01-26.05-1.17-40.55-0.11-13.63,0.04-27.84,0.71-41.91,0.54-12.34,1.56-24.61,2.69-36.88,1.13-12.5,2.19-21.8,3.09-28.71"/></clipPath><clipPath id="clipPath490" clipPathUnits="userSpaceOnUse"><path id="path492" d="m4750,2858.2,70,0,0-350-70,0,0,350z"/></clipPath><clipPath id="clipPath496" clipPathUnits="userSpaceOnUse"><path id="path498" d="m4750,2858.2,70,0,0-350-70,0,0,350z"/></clipPath><clipPath id="clipPath502" clipPathUnits="userSpaceOnUse"><path id="path504" d="m4750,2858.2,70,0,0-350-70,0,0,350z"/></clipPath><clipPath id="clipPath710" clipPathUnits="userSpaceOnUse"><path id="path712" d="m0,169.66,6727.6,0,0,2708.5h-6727.6v-2708.5z"/></clipPath></defs><g id="g10" transform="matrix(1.25,0,0,-1.25,0,360)"><g id="g12" transform="scale(0.1,0.1)"><path id="path14" stroke-linejoin="miter" d="m6569.6,994.31s14.73,23.748,58.94,16.328c44.22-7.38,68.44,23.56,68.44,23.56" stroke="#ff0808" stroke-linecap="butt" stroke-miterlimit="4" stroke-dasharray="none" stroke-width="24" fill="none"/><path id="path16" stroke-linejoin="miter" d="m7041.6,20.254s-23.94,14.41-17.11,58.711c6.84,44.34-24.41,68.129-24.41,68.129" stroke="#ff0808" stroke-linecap="butt" stroke-miterlimit="4" stroke-dasharray="none" stroke-width="24" fill="none"/><path id="path18" stroke-linejoin="miter" d="m6714,1034.8s6.76,27.1,51.1,33.62c44.33,6.54,57.89,43.4,57.89,43.4" stroke="#ff0808" stroke-linecap="butt" stroke-miterlimit="4" stroke-dasharray="none" stroke-width="24" fill="none"/><path id="path20" stroke-linejoin="miter" d="m8261.1,2342.9s-20.11,19.41-3.59,61.05c16.52,41.68-8.59,71.88-8.59,71.88" stroke="#ff0808" stroke-linecap="butt" stroke-miterlimit="4" stroke-dasharray="none" stroke-width="24" fill="none"/><path id="path22" stroke-linejoin="miter" d="m9367.7,2357.2s-22.7,16.29-12.39,59.93c10.35,43.59-18.86,69.84-18.86,69.84" stroke="#ff0808" stroke-linecap="butt" stroke-miterlimit="4" stroke-dasharray="none" stroke-width="24" fill="none"/><path id="path24" stroke-linejoin="miter" d="m6967.3,298.61s-241.37,958.87,0,1939.8" stroke="#00a300" stroke-linecap="round" stroke-miterlimit="4" stroke-dasharray="none" stroke-width="360" fill="none"/><path id="path26" stroke-linejoin="miter" d="m6944.3,2215.4s2218.4-471.25-80.47-1138" stroke="#007600" stroke-linecap="round" stroke-miterlimit="4" stroke-dasharray="none" stroke-width="360" fill="none"/><path id="path28" stroke-linejoin="miter" d="m9404.1,2192.4s206.88-574.73,0-1344.8c-206.91-770.12-551.76-643.68-620.7-620.71-68.99,23.011-321.84,45.98-505.78,517.27" stroke="#b6bc1d" stroke-linecap="round" stroke-miterlimit="4" stroke-dasharray="none" stroke-width="360" fill="none"/><path id="path30" fill-rule="nonzero" fill="#000" d="m6884.3,1008.5c0-17.66-13.01-31.961-29.06-31.961-16.06,0-29.07,14.301-29.07,31.961,0,17.61,13.01,31.91,29.07,31.91,16.05,0,29.06-14.3,29.06-31.91"/><g id="g32" transform="scale(0.92441,-1.07559)"><path id="path34" stroke-linejoin="miter" d="m7447.2-937.62c0,16.408-14.06,29.703-31.43,29.703s-31.44-13.295-31.44-29.703c0-16.383,14.07-29.679,31.44-29.679s31.43,13.296,31.43,29.679z" stroke="#000" stroke-linecap="round" stroke-miterlimit="4" stroke-dasharray="none" stroke-width="1.62039" fill="none"/></g><path id="path36" fill-rule="nonzero" fill="#000" d="m6835.4,1129.2c0-17.62-13.01-31.91-29.02-31.91-16.06,0-29.07,14.29-29.07,31.91,0,17.66,13.01,31.95,29.07,31.95,16.01,0,29.02-14.29,29.02-31.95"/><g id="g38" transform="scale(0.92441,-1.07559)"><path id="path40" stroke-linejoin="miter" d="m7394.3-1049.8c0,16.38-14.07,29.68-31.4,29.68-17.36,0-31.43-13.3-31.43-29.68,0-16.41,14.07-29.7,31.43-29.7,17.33,0,31.4,13.29,31.4,29.7z" stroke="#000" stroke-linecap="round" stroke-miterlimit="4" stroke-dasharray="none" stroke-width="1.62039" fill="none"/></g><path id="path42" fill-rule="nonzero" fill="#000" d="m9479.1,1238.4c0-17.66-13.01-31.95-29.02-31.95-16.06,0-29.06,14.29-29.06,31.95,0,17.62,13,31.91,29.06,31.91,16.01,0,29.02-14.29,29.02-31.91"/><g id="g44" transform="scale(0.92441,-1.07559)"><path id="path46" stroke-linejoin="miter" d="m10254-1151.4c0,16.42-14,29.71-31.4,29.71-17.3,0-31.4-13.29-31.4-29.71,0-16.37,14.1-29.67,31.4-29.67,17.4,0,31.4,13.3,31.4,29.67z" stroke="#000" stroke-linecap="round" stroke-miterlimit="4" stroke-dasharray="none" stroke-width="1.62039" fill="none"/></g><path id="path48" fill-rule="nonzero" fill="#000" d="m9565.3,1111.9c0-17.65-13.01-31.91-29.06-31.91-16.02,0-29.02,14.26-29.02,31.91,0,17.62,13,31.92,29.02,31.92,16.05,0,29.06-14.3,29.06-31.92"/><g id="g50" transform="scale(0.92441,-1.07559)"><path id="path52" stroke-linejoin="miter" d="m10348-1033.8c0,16.42-14.1,29.67-31.4,29.67-17.4,0-31.4-13.25-31.4-29.67,0-16.38,14-29.67,31.4-29.67,17.3,0,31.4,13.29,31.4,29.67z" stroke="#000" stroke-linecap="round" stroke-miterlimit="4" stroke-dasharray="none" stroke-width="1.62039" fill="none"/></g><path id="path54" fill-rule="nonzero" fill="#000" d="m6944.6,232.6c0-17.622-13.01-31.922-29.06-31.922-16.06,0-29.07,14.3-29.07,31.922,0,17.648,13.01,31.949,29.07,31.949,16.05,0,29.06-14.301,29.06-31.949"/><g id="g56" transform="scale(0.92441,-1.07559)"><path id="path58" stroke-linejoin="miter" d="m7512.5-216.25c0,16.372-14.07,29.668-31.43,29.668-17.37,0-31.45-13.296-31.45-29.668,0-16.419,14.08-29.714,31.45-29.714,17.36,0,31.43,13.295,31.43,29.714z" stroke="#000" stroke-linecap="round" stroke-miterlimit="4" stroke-dasharray="none" stroke-width="1.62039" fill="none"/></g><path id="path60" fill-rule="nonzero" fill="#000" d="m7082.5,272.83c0-17.617-13.01-31.906-29.06-31.906-16.06,0-29.07,14.289-29.07,31.906,0,17.66,13.01,31.953,29.07,31.953,16.05,0,29.06-14.293,29.06-31.953"/><g id="g62" transform="scale(0.92441,-1.07559)"><path id="path64" stroke-linejoin="miter" d="m7661.7-253.66c0,16.379-14.06,29.675-31.43,29.675s-31.45-13.296-31.45-29.675c0-16.412,14.08-29.707,31.45-29.707s31.43,13.295,31.43,29.707z" stroke="#000" stroke-linecap="round" stroke-miterlimit="4" stroke-dasharray="none" stroke-width="1.62039" fill="none"/></g><path id="path66" fill-rule="nonzero" fill="#000" d="m9479.1,2267.1c0-17.66-13.01-31.95-29.02-31.95-16.06,0-29.06,14.29-29.06,31.95,0,17.62,13,31.91,29.06,31.91,16.01,0,29.02-14.29,29.02-31.91"/><g id="g68" transform="scale(0.92441,-1.07559)"><path id="path70" stroke-linejoin="miter" d="m10254-2107.8c0,16.42-14,29.71-31.4,29.71-17.3,0-31.4-13.29-31.4-29.71,0-16.38,14.1-29.67,31.4-29.67,17.4,0,31.4,13.29,31.4,29.67z" stroke="#000" stroke-linecap="round" stroke-miterlimit="4" stroke-dasharray="none" stroke-width="1.62039" fill="none"/></g><path id="path72" fill-rule="nonzero" fill="#000" d="m9358.4,2226.9c0-17.65-13.01-31.95-29.06-31.95-16.06,0-29.07,14.3-29.07,31.95,0,17.62,13.01,31.92,29.07,31.92,16.05,0,29.06-14.3,29.06-31.92"/><g id="g74" transform="scale(0.92441,-1.07559)"><path id="path76" stroke-linejoin="miter" d="m10124-2070.4c0,16.42-14.1,29.7-31.4,29.7-17.4,0-31.5-13.28-31.5-29.7,0-16.38,14.1-29.67,31.5-29.67,17.3,0,31.4,13.29,31.4,29.67z" stroke="#000" stroke-linecap="round" stroke-miterlimit="4" stroke-dasharray="none" stroke-width="1.62039" fill="none"/></g><path id="path78" fill-rule="nonzero" fill="#d8cc69" d="m6830.7,524.82,95.39-71.789,55.78,107.07-90.07,68.078"/><path id="path80" fill-rule="nonzero" fill="#d8cc69" d="m6769.4,1609.8,81.18-87.53,73.82,95.46-76.56,82.97"/><path id="path82" fill-rule="nonzero" fill="#d8cc69" d="m6763.6,1381.5,79.34-89.22,75.82,93.91-74.84,84.57"/><path id="path84" fill-rule="nonzero" fill="#d8cc69" d="m6787.2,1868.6,67.03-98.83,87.42,83.25-63.16,93.59"/><path id="path86" fill-rule="nonzero" fill="#d8cc69" d="m6787.8,747.95,93.13-74.769,59.06,105.28-87.85,70.898"/><path id="path88" stroke-linejoin="miter" d="M9114.6,556.58,9400.5,397.16" stroke="#d42e2e" stroke-linecap="butt" stroke-miterlimit="4" stroke-dasharray="none" stroke-width="209.958" fill="none"/><path id="path90" stroke-linejoin="miter" d="M8667.2,450.52,8508.8,164.12" stroke="#d42e2e" stroke-linecap="butt" stroke-miterlimit="4" stroke-dasharray="none" stroke-width="209.958" fill="none"/><path id="path92" stroke-linejoin="miter" d="m9332.7,1659.5,326.68,19.8" stroke="#d42e2e" stroke-linecap="butt" stroke-miterlimit="4" stroke-dasharray="none" stroke-width="209.958" fill="none"/><path id="path94" stroke-linejoin="miter" d="m9283.7,1051.2,321.29-62.427" stroke="#d42e2e" stroke-linecap="butt" stroke-miterlimit="4" stroke-dasharray="none" stroke-width="209.958" fill="none"/><g id="g96"><g id="g98" clip-path="url(#clipPath100)"><path id="path104" fill-rule="nonzero" fill="#f36c2e" d="m1558.3,1733.3c75.74,0,126.17-8.67,151.25-26.17,34.61-24.5,49.77-72.66,45.55-144.57-4.26-71.96-41.1-174.85-110.55-308.79-50.16-96.64-101.29-178.94-153.28-246.76-52.07-67.845-103.59-121.84-154.65-162.03-36.25-28.558-76.52-50.707-120.78-66.367-44.3-15.742-98.2-23.59-161.68-23.59h-205.55l507.42,978.28h202.27zm777.7,401.21c-41.14,74.26-110.71,125.59-208.75,153.94-69.89,20.59-181.37,30.82-334.42,30.82h-677.93l-1114.9-2149.5h710.16c119.02,0,230.7,12.231,335.15,36.68,104.38,24.418,201.33,60.359,290.82,107.74,89.46,47.422,182.93,112.42,280.39,195.04,97.43,82.609,196.29,186.99,296.6,313.04,100.32,126.06,192.78,270.75,277.47,434.04,99.33,191.55,161.99,361.9,187.85,510.96,25.86,149.11,11.68,271.49-42.42,367.31"/></g></g><g id="g106"><g id="g108" fill-rule="nonzero" clip-path="url(#clipPath110)"><path id="path114" fill="#f36f17" d="m3798.6,2309.7s-286.91-560.58-342.07-668.4c-56.17,107.35-350,668.4-350,668.4h-762.61l1113.7-2130.5s737.42,1415,758.39,1455.2c40.36-0.12,583.36-0.98,671.92-1.09-53.9-105.5-736.2-1439.2-736.2-1439.2h762.85s714.73,1397.2,735.63,1438c43.39-0.12,734.76-1.22,734.76-1.22l342.66,678.79h-2929"/><path id="path116" fill="#FFF" d="m3821.8,2270.6s-288.17-563-364.81-712.77c-78.12,149.3-373.28,712.77-373.28,712.77h-675.94l1049.9-2008.4,735.58,1409.6h757.82l-736.22-1438.5h676.65l735.62,1438.5h734.65l303.12,598.75h-2843.1"/><path id="path118" fill="#591215" d="m6570.7,2211.8-2714.4,0-398.83-779.29-408.05,779.29-546.09,0,954.14-1825.2,701.45,1343.9,886.67,0-736.09-1438.5,547.27,0,735.66,1438.5,734.45,0,243.79,481.33"/><path id="path120" fill="#5f1316" d="m5120.2,363.69c40.39,0,72.7-33.707,72.7-75.156,0-42.113-32.31-75.473-73.01-75.473-40.43,0-73.4,33.36-73.4,75.473,0,41.449,32.97,75.156,73.4,75.156h0.31zm-0.66-15.039c-30.59,0-55.39-27.07-55.39-60.468,0-33.672,24.8-60.082,55.74-60.082,30.9-0.309,56.06,26.41,56.06,60.082,0,33.398-25.16,60.468-56.06,60.468h-0.35zm-12.38-103.91-17.27,0,0,83.52c6.53,1.05,13.67,2.383,26.1,2.383,13.94,0,22.46-2.383,27.96-6.723,4.61-3.59,7.19-9.328,7.19-17.969,0-10.07-6.83-17.109-15.62-19.449v-0.621c7.22-1.371,11.75-8.008,13.04-20.399,1.61-13,3.25-17.961,4.53-20.742h-17.92c-1.96,3.09-3.25,10.391-4.89,21.723-1.25,9.058-6.52,12.738-15.31,12.738h-7.81v-34.461zm0,48.172,8.16,0c10.08,0,17.89,3.277,17.89,11.988,0,7.032-4.88,12.34-16.6,12.34-4.3,0-7.15,0-9.45-0.308v-24.02"/></g></g><g id="g122"><g id="g124" fill-rule="nonzero" clip-path="url(#clipPath126)"><path id="path130" fill="#f36f17" d="m1710.6,179.2,568.28,0s212.42,415,253.24,494.8c41.6-79.449,259.1-494.8,259.1-494.8h564.57l-824.45,1577.1s-545.94-1047.4-561.45-1077.3"/><path id="path132" fill="#FFF" d="m1756.8,208.18,504.88,0s213.32,416.76,270.04,527.66c57.85-110.51,276.36-527.66,276.36-527.66h500.36l-777.2,1486.7-544.6-1043.5"/><path id="path134" fill="#591215" d="m1827.3,251.66,408.83,0,295.24,576.87,302.07-576.87,404.26,0-706.33,1351.1-519.26-994.84"/><path id="path136" fill="#FFF" d="m1598.6,1850.4c101.29,0,169.18-10.82,203.64-32.43,47.53-30.31,70.31-89.96,68.35-178.98-1.99-89.1-45.97-216.52-131.99-382.34-62.07-119.73-126.21-221.57-192.26-305.51-66.17-84.058-132.31-150.9-198.52-200.67-47.03-35.351-99.73-62.73-158.12-82.179-58.44-19.5-130.08-29.18-215-29.18h-274.93l628.29,1211.3h270.54zm692.35,251.68c-38.05,71.52-103.21,120.93-195.47,148.32-65.74,19.8-170.9,29.68-315.31,29.68h-639.93l-1074.3-2071.3h670.31c112.3,0,217.89,11.797,316.72,35.359,98.79,23.508,190.66,58.121,275.58,103.82,84.93,45.668,173.83,108.32,266.64,187.93,92.86,79.609,187.19,180.16,283.17,301.61,95.98,121.52,184.72,260.89,266.33,418.2,95.74,184.66,156.6,348.75,182.54,492.42,25.89,143.63,13.78,261.56-36.29,353.95"/><path id="path138" fill="#FFF" d="m1024.5,880.88,121.92,0c37.65,0,70.19,5.742,97.57,17.301,27.43,11.519,52.93,27.769,76.53,48.711,33.2,29.527,67.69,69.145,103.55,118.98,35.82,49.76,72.11,110.11,108.95,181.09,50.97,98.32,80.35,173.87,88.12,226.64,7.78,52.77,2.31,88.16-16.44,106.05-13.6,12.86-42.89,19.26-87.81,19.26h-119.97l-372.42-718.04zm-133.08-110.94,487.5,939.92,196.71,0c44.38,0,75.94-4.48,94.65-13.48,26.25-12.42,42.58-34.88,48.87-67.3,8.36-41.88,3.13-95.43-15.74-160.63-18.87-65.11-50.04-139.65-93.52-223.39-37.03-71.41-74.88-134.65-113.63-189.81-38.71-55.12-75.35-100.74-109.92-136.84-34.57-36.129-66.68-64.609-96.25-85.312-29.53-20.739-60.43-36.438-92.58-47.11-32.19-10.699-65.51-16.051-100.04-16.051h-206.05"/><path id="path140" fill="#591215" d="m1544.1,1687.8c65.12,0,108.24-7.93,129.38-23.87,29.1-22.23,40.86-66.08,35.31-131.6-5.55-65.51-39.92-159.18-103.16-281.09-45.67-88.05-91.72-162.93-138.25-224.65-46.56-61.796-92.26-110.94-137.22-147.54-31.92-25.98-67.15-46.168-105.63-60.469-38.47-14.301-84.96-21.449-139.57-21.449h-176.72l461.96,890.67h173.9zm679.22,365.27c-33.44,67.66-91.91,114.35-175.47,140.24-59.53,18.67-155.08,28-286.64,28h-582.85l-1015.1-1957.1h610.51c102.3,0,198.67,11.141,289.14,33.399,90.35,22.23,174.65,54.922,252.81,98.09,78.17,43.16,160.24,102.38,246.18,177.58,85.97,75.191,173.71,170.19,263.24,284.96,89.57,114.84,172.85,246.52,249.96,395.14,90.47,174.46,148.79,329.53,174.96,465.28,26.17,135.74,17.19,247.15-26.76,334.37"/><path id="path142" fill="#f36f17" d="m4608.5,1236.7-41.84-80.67,0-0.86-517.27,0.86,41.88,80.67,517.23,0"/><path id="path144" fill="#f36f17" d="m4049.4,1156,517.27-0.86c-14.2-27.7-499.2-975.87-499.2-975.87h-517.73s463,905.12,499.64,976.76"/><path id="path146" fill="#FFF" d="m4565.4,1210.1-28.16-54.18,0-0.66-458.36,0.66,28.04,54.18,458.48,0"/><path id="path148" fill="#FFF" d="m4537.2,1155.2-485.39-949.44-459.3,0,486.33,950.1,458.36-0.66"/><path id="path150" fill="#591215" d="m4500.9,1170.2-7.42-14.3,0-0.66-370.71,0.66,7.43,14.3,370.7,0"/><path id="path152" fill="#591215" d="m4493.4,1155.2-465.12-909.6-371.44,0,465.78,910.26,0.07,0,370.71-0.66"/><path id="path154" fill="#f36c2e" d="m1403.7,1070.6c-33.71-48.55-65.58-87.107-95.74-115.9-21.41-20.391-44.14-36.25-68.16-47.461-24.07-11.25-52.07-16.871-84.11-16.871h-103.67l362.89,699.62h102c38.2,0,62.69-6.25,73.43-18.72,14.77-17.5,17.15-51.96,7.15-103.4-10.04-51.49-39.84-125.04-89.53-220.74-35.86-69.18-70.63-128.01-104.26-176.53zm238.32,423.14c8.21,57.02,2.07,95.22-18.44,114.64-14.92,13.82-46.83,20.78-95.82,20.78h-130.74l-402.34-775.71h132.89c41.05,0,76.48,6.219,106.29,18.68,29.8,12.461,57.54,30,83.12,52.648,36.06,31.883,73.48,74.653,112.31,128.48,38.79,53.79,78.04,118.98,117.81,195.66,55.08,106.18,86.72,187.78,94.92,244.82"/><path id="path156" fill="#100f0d" d="m5204,2309.8s-275.24-75-431.92-53.91c-156.72,21.06-157.77,51.72-157.77,51.72s-73.44,68.6-57.58,147.66c0,0,47.5,226.64,487.62,171.64,440.11-54.96,483.9-293.71,483.9-293.71s-2.3-12.74-31.05-23.48"/><path id="path158" fill="#FFF" d="m4640.6,2539.7s5.11,99.07-10.24,159.46c-15.35,60.43-30.7,101.48-52.85,118.4-22.19,16.95-25.58,101.48,10.24,36.24,35.82-65.23,34.96-77.3,38.35-94.21,3.44-16.92,17.07-88.21,19.61-153.44,2.58-65.24,0-72.5,0-72.5"/></g></g><g id="g160"><g id="g162" clip-path="url(#clipPath164)"><g id="g168" clip-path="url(#clipPath170)"><g id="g174" clip-path="url(#clipPath176)"><g id="g180" clip-path="url(#clipPath182)"><g id="g186" clip-path="url(#clipPath188)"><g id="g192" clip-path="url(#clipPath194)"><g id="g198" clip-path="url(#clipPath200)"><g id="g204" clip-path="url(#clipPath206)"><g id="g210" clip-path="url(#clipPath212)"><g id="g216" clip-path="url(#clipPath218)"><g id="g222" fill-rule="nonzero" fill="#100f0d" clip-path="url(#clipPath224)"><path id="path228" d="m4641.5,2536.2s0.12-0.12,0.12-0.16c0.04,0,0.43,9.45,0.55,24.18-0.94-3.55-1.02-6.99-0.2-10.35-0.23-8.52-0.47-13.63-0.47-13.67"/><path id="path230" d="m4641.6,2536.1c0.16-0.12,0.24-0.23,0.39-0.47,0,0,0.39,9.35,0.51,24.35-0.12,0-0.31,0.5-0.35,0.3-0.16-14.73-0.51-24.1-0.55-24.18"/><path id="path232" d="m4642,2535.6c0.16-0.19,0.35-0.39,0.59-0.65,0,0.11,0.39,9.17,0.47,24.56-0.2-0.16-0.39,0.62-0.51,0.44-0.16-15-0.51-24.27-0.55-24.35"/><path id="path234" d="m4642.6,2535c0.23-0.29,0.43-0.52,0.7-0.83,0,0,0.43,8.94,0.47,25-0.2-0.28-0.51,0.7-0.7,0.39-0.12-15.39-0.47-24.49-0.47-24.56"/><path id="path236" d="m4643.3,2534.1c0.23-0.32,0.51-0.58,0.74-0.9,0,0,0.51,8.67,0.51,25.94-0.19-0.46-0.43,0.43-0.78,0,0-16.06-0.47-24.93-0.47-25"/><path id="path238" d="m4644.1,2533.2c0.28-0.31,0.51-0.59,0.78-0.9,0,0,0.59,8.52,0.51,27.97-0.19-0.9-0.47-0.23-0.78-1.13,0-17.27-0.51-25.82-0.51-25.94"/><path id="path240" d="m4644.8,2532.3c0.24-0.23,0.47-0.55,0.71-0.82,0,0.16,0.78,8.59,0.47,32.7-0.2-1.45-0.36-2.43-0.67-3.91,0.12-19.45-0.51-27.89-0.51-27.97"/><path id="path242" d="m4645.6,2531.5c0.19-0.27,0.39-0.46,0.54-0.66,3.75,8.67,0.63,21.45,0.63,30.93-0.2,1.21-0.43,1.21-0.7,2.43,0.31-24.11-0.47-32.62-0.47-32.7"/><path id="path244" d="m4646.1,2530.8c0.16-0.2,0.32-0.36,0.39-0.46,0.47,8.58,0.75,17.14,0.79,25.73-0.16,1.91-0.32,3.79-0.55,5.66,0-9.48,3.12-22.26-0.63-30.93"/><path id="path246" d="m4646.5,2530.4c0.12-0.13,0.16-0.21,0.16-0.21s0.51,1.45,0.82,8.75c0.16,3.96-0.31,13.17-0.19,17.19,0-8.59-0.32-17.15-0.79-25.73"/><path id="path248" d="m4642,2549.9c-0.82,3.36-0.74,6.8,0.2,10.35-0.12,12.5-0.2,24.96-0.2,37.46-1.17-5.9-1.05-11.64,0.31-17.23,0-12.22-0.15-22.81-0.31-30.58"/><path id="path250" d="m4642.2,2560.2c0,0.2,0.23-0.39,0.35-0.3,0.16,12.34,0,24.68-0.31,37.02-0.12,0.16-0.24,0.78-0.28,0.74,0-12.46,0.16-24.96,0.24-37.46"/><path id="path252" d="m4642.6,2560c0.12,0.18,0.31-0.56,0.54-0.44,0,12.19-0.15,24.33-0.42,36.53-0.2,0.11-0.4,0.93-0.47,0.93,0.35-12.34,0.43-24.68,0.35-37.02"/><path id="path254" d="m4643.1,2559.5c0.16,0.31,0.47-0.63,0.67-0.35,0,11.95-0.16,23.9-0.51,35.86-0.23,0.15-0.43,0.97-0.58,0.97,0.31-12.15,0.46-24.33,0.42-36.48"/><path id="path256" d="m4643.8,2559.1c0.35,0.47,0.59-0.42,0.78,0,0,11.76-0.23,23.47-0.59,35.19-0.23,0-0.46,0.75-0.7,0.67,0.35-11.96,0.55-23.91,0.51-35.9"/><path id="path258" d="m4644.6,2559.2c0.31,0.9,0.59,0.27,0.78,1.13-0.15,11.44-0.31,22.85-0.66,34.3-0.24-0.28-0.51,0.11-0.71-0.24,0.36-11.72,0.55-23.44,0.59-35.19"/><path id="path260" d="m4645.4,2560.3c0.31,1.48,0.47,2.46,0.67,3.91-0.16,10.97-0.4,21.95-0.75,32.93-0.19-0.86-0.39-1.68-0.58-2.54,0.35-11.45,0.58-22.86,0.66-34.3"/><path id="path262" d="m4646,2564.2c0.27-1.22,0.5-1.22,0.7-2.43,0,7.27-0.2,18.13-0.63,31.33-0.27,1.99-0.54,2.89-0.82,4.03,0.35-10.98,0.59-21.96,0.75-32.93"/><path id="path264" d="m4646.7,2561.8c0.23-1.87,0.39-3.75,0.55-5.66,0,7.11,0,16.91-0.43,29.77-0.2,2.46-0.43,4.8-0.75,7.22,0.43-13.2,0.63-24.06,0.63-31.33"/><path id="path266" d="m4647.3,2556.1c-0.16-4.02,0.27-13.23,0.19-17.19,0.24,5,0.39,12.81,0.24,24.81-0.16,5.5-0.36,16.48-0.86,22.15,0.39-12.86,0.46-22.66,0.43-29.77"/><path id="path268" d="m4642.3,2580.5c-1.36,5.59-1.48,11.33-0.31,17.23-0.27,11.88-0.82,24.61-1.79,37.46-1.8-5.97-1.45-11.37,1.05-16.09,0.7-13.7,0.98-26.88,1.05-38.6"/><path id="path270" d="m4642,2597.7s0.12-0.62,0.24-0.74c-0.32,12.5-0.9,25-1.8,37.5-0.12,0.48-0.2,0.91-0.23,0.7,0.97-12.85,1.52-25.58,1.79-37.46"/><path id="path272" d="m4642.2,2597s0.27-0.82,0.47-0.93c-0.36,11.63-0.94,25.42-1.76,37.14-0.24,0.66-0.43,1.33-0.51,1.29,0.9-12.46,1.48-24.96,1.8-37.46"/><path id="path274" d="m4642.7,2596c0.15,0,0.35-0.86,0.58-0.97-0.35,11.71-0.9,25-1.76,36.75-0.27,0.71-0.43,1.41-0.58,1.41,0.82-11.72,1.4-25.55,1.76-37.14"/><path id="path276" d="m4643.3,2595c0.24,0.15,0.47-0.67,0.7-0.67-0.39,11.72-0.93,24.45-1.75,36.21-0.28,0.64-0.51,1.21-0.71,1.17,0.82-11.75,1.41-25,1.76-36.71"/><path id="path278" d="m4644,2594.4c0.2,0.31,0.47,0,0.71,0.24-0.39,11.52-0.94,24.06-1.76,35.5-0.27,0.47-0.51,0.75-0.7,0.47,0.82-11.76,1.36-24.45,1.75-36.21"/><path id="path280" d="m4644.7,2594.6c0.19,0.86,0.39,1.68,0.58,2.54-0.39,12.34-0.78,21.64-1.79,34.6-0.24-0.11-0.36-0.97-0.55-1.64,0.82-11.44,1.37-23.98,1.76-35.5"/><path id="path282" d="m4645.3,2597.1c0.28-1.14,0.55-2.04,0.82-4.03-0.43,12.46-0.74,21.6-1.68,34.49-0.35,2.2-0.66,3.13-0.93,4.14,1.01-12.96,1.4-22.26,1.79-34.6"/><path id="path284" d="m4646.1,2593.1c0.32-2.42,0.55-4.76,0.75-7.22-0.32,11.71-0.67,23-1.45,34.64-0.23,2.39-0.59,4.73-0.98,7.07,0.94-12.89,1.25-22.03,1.68-34.49"/><path id="path286" d="m4646.8,2585.9c0.5-5.67,0.7-16.65,0.86-22.15-0.12,9.18-0.4,20.86-0.94,35.54-0.35,5.32-0.78,15.86-1.37,21.25,0.78-11.64,1.13-22.93,1.45-34.64"/><path id="path288" d="m4641.2,2619.1c-2.5,4.72-2.85,10.12-1.05,16.09-0.94,12.89-2.31,25.9-4.26,38.21-1.25-5.12-0.63-9.54,1.79-13.25,1.68-13.47,2.82-27.5,3.52-41.05"/><path id="path290" d="m4640.2,2635.2c0,0.21,0.15-0.19,0.23-0.7-0.94,12.82-2.27,25.91-4.14,38.24-0.31,1.37-0.39,1.25-0.35,0.67,1.95-12.31,3.32-25.32,4.26-38.21"/><path id="path292" d="m4640.4,2634.5s0.27-0.63,0.51-1.33c-0.94,12.74-2.27,25.86-4.03,38.28-0.31,0.67-0.46,1.29-0.62,1.29,1.87-12.33,3.2-25.42,4.14-38.24"/><path id="path294" d="m4640.9,2633.1c0.15,0,0.31-0.66,0.58-1.41-0.9,12.58-2.18,25.72-3.86,38.13-0.36,0.74-0.51,1.48-0.75,1.56,1.76-12.42,3.09-25.54,3.99-38.28"/><path id="path296" d="m4641.5,2631.7c0.2,0,0.39-0.53,0.71-1.17-0.9,12.39-2.15,25.39-3.75,37.78-0.36,0.7-0.55,1.48-0.82,1.52,1.68-12.41,2.96-25.55,3.86-38.13"/><path id="path298" d="m4642.2,2630.6c0.19,0.28,0.43,0,0.7-0.47-0.9,12.23-2.15,25-3.67,37.23-0.39,0.56-0.51,1.09-0.82,1.02,1.64-12.39,2.89-25.36,3.79-37.78"/><path id="path300" d="m4642.9,2630.1c0.19,0.67,0.31,1.57,0.55,1.64-0.94,12-2.19,24.38-3.68,36.18-0.35,0.97-0.35,0-0.54-0.59,1.52-12.23,2.77-25,3.67-37.23"/><path id="path302" d="m4643.5,2631.7c0.27-1.01,0.58-1.94,0.9-4.14-0.86,11.92-2.08,24.07-3.48,35.82-0.43,2.07-0.74,3.48-1.13,4.5,1.52-11.8,2.77-24.18,3.71-36.18"/><path id="path304" d="m4644.4,2627.6c0.39-2.34,0.75-4.68,0.98-7.07-0.78,12-1.91,24.22-3.2,36.14-0.43,2.26-0.86,4.49-1.29,6.75,1.4-11.75,2.62-23.9,3.48-35.82"/><path id="path306" d="m4645.4,2620.5c0.59-5.39,1.02-15.93,1.37-21.25-0.55,15.12-1.6,30.2-3.05,45.24-0.27,3.16-1.13,8.83-1.52,12.15,1.33-11.92,2.42-24.14,3.2-36.14"/><path id="path308" d="m4637.7,2660.1c-2.42,3.71-3.04,8.13-1.79,13.25-2.19,13.32-5.12,26.44-8.71,39.45,0.15-4.34,1.05-8.36,2.77-12.15,3.48-13.32,5.98-26.84,7.73-40.55"/><path id="path310" d="m4635.9,2673.4c0,0.58,0,0.7,0.35-0.67-2.03,13.13-4.73,25.99-8.17,38.75-0.5,1.45-0.74,1.64-0.89,1.37,3.59-12.97,6.52-26.13,8.71-39.45"/><path id="path312" d="m4636.3,2672.7c0.16,0,0.31-0.62,0.62-1.29-1.83,12.89-4.41,25.67-7.65,38.24-0.67,0.82-0.78,1.54-1.14,1.8,3.44-12.76,6.14-25.62,8.17-38.75"/><path id="path314" d="m4636.9,2671.4c0.24,0,0.39-0.86,0.75-1.56-1.61,12.66-3.99,25.16-7.07,37.5-0.71,0.98-0.94,1.84-1.33,2.3,3.24-12.57,5.82-25.35,7.65-38.24"/><path id="path316" d="m4637.7,2669.9c0.27,0,0.46-0.82,0.82-1.52-1.45,12.3-3.56,24.45-6.41,36.45-0.74,0.97-1.05,2.02-1.48,2.57,3.08-12.34,5.46-24.84,7.07-37.5"/><path id="path318" d="m4638.5,2668.3c0.23,0,0.39-0.46,0.78-1.02-1.64,12.66-4.65,24.57-5.71,34.92-0.58,1.1-1.05,1.96-1.48,2.55,2.85-12,4.96-24.15,6.41-36.45"/><path id="path320" d="m4639.3,2667.3c0.19,0.63,0.19,1.56,0.54,0.59-1.56,12.3-3.35,23.98-5.31,34.06-0.94,2.23-0.74,1.17-0.94,0.27,1.06-10.35,4.07-22.22,5.71-34.92"/><path id="path322" d="m4639.8,2667.9c0.36-1.02,0.67-2.43,1.14-4.5-1.45,12.15-3.13,23.83-4.89,34.34-0.58,1.84-1.13,3.2-1.56,4.22,1.96-10.08,3.75-21.76,5.31-34.06"/><path id="path324" d="m4640.9,2663.4c0.39-2.26,0.82-4.49,1.25-6.75-1.37,12.22-2.93,24.18-4.57,35.07-0.55,2-1.1,3.99-1.57,6.02,1.76-10.51,3.44-22.19,4.89-34.34"/><path id="path326" d="m4642.2,2656.7c0.39-3.32,1.25-8.99,1.52-12.15-1.52,15.78-3.44,31.17-5.47,45.31,0-0.16-0.58,1.91-0.62,1.91,1.64-10.89,3.2-22.85,4.57-35.07"/><path id="path328" d="m4630,2700.7c-1.72,3.79-2.62,7.81-2.77,12.15-3.91,14.8-7.7,28.12-11.61,39.96-1.01-2.27-0.85-3.71,0.43-4.38,4.77-14.1,9.38-30.03,13.95-47.73"/><path id="path330" d="m4627.2,2712.8c0.15,0.27,0.39,0.12,0.89-1.37-3.67,14.69-7.14,27.85-10.74,39.53-0.74,1.41-1.29,1.84-1.76,1.8,3.91-11.84,7.7-25.2,11.57-40"/><path id="path332" d="m4628.1,2711.5c0.36-0.31,0.47-0.98,1.14-1.8-3.64,15-6.88,28.25-10.2,39.93-0.9,0.86-1.13,1.17-1.64,1.4,3.56-11.68,7.03-24.79,10.7-39.53"/><path id="path334" d="m4629.3,2709.7c0.35-0.46,0.62-1.32,1.33-2.3-3.6,15.31-6.61,28.63-9.69,40.31-0.94,0.98-1.33,1.41-1.84,1.92,3.32-11.68,6.56-24.93,10.2-39.93"/><path id="path336" d="m4630.6,2707.4c0.43-0.55,0.74-1.52,1.48-2.57-3.59,15.66-6.45,29.01-9.3,40.59-0.89,1.08-1.29,1.63-1.87,2.29,3.08-11.68,6.09-25,9.69-40.31"/><path id="path338" d="m4632.1,2704.8c0.43-0.59,0.9-1.45,1.48-2.55,0,13.91-2.96,27.46-8.86,40.74-0.78,1.22-1.29,1.65-1.92,2.4,2.85-11.58,5.71-24.93,9.3-40.59"/><path id="path340" d="m4633.6,2702.2c0.2,0.9,0,1.96,0.94-0.27-2.54,13.24-5.27,26.44-8.2,39.61-1.06,2.38-1.13,1.64-1.6,1.4,5.9-13.28,8.86-26.83,8.86-40.74"/><path id="path342" d="m4634.5,2702c0.43-1.02,0.98-2.38,1.56-4.22-2.18,12.93-4.68,25.86-7.46,38.71-0.93,2.46-1.52,3.44-2.3,5.16,2.93-13.17,5.66-26.41,8.2-39.65"/><path id="path344" d="m4636,2697.8c0.47-2.03,1.02-4.02,1.57-6.02-1.8,12.39-3.95,24.69-6.37,36.97-0.82,2.57-1.72,5.18-2.66,7.76,2.78-12.85,5.28-25.78,7.46-38.71"/><path id="path346" d="m4637.6,2691.7s0.66-2.07,0.62-1.91c-2.15,15.35-4.45,29.26-6.4,40.56,0.15-1.61-0.63-0.29-0.59-1.68,2.42-12.28,4.57-24.58,6.37-36.97"/><path id="path348" d="m4616,2748.4c-1.28,0.67-1.44,2.11-0.43,4.38-4.25,12.85-8.67,23.94-13.63,33.36-1.05-0.2-1.76,0-2.07,0.78,5.74-10.66,11.06-23.52,16.13-38.52"/><path id="path350" d="m4615.6,2752.8c0.47,0,1.02-0.34,1.8-1.8-3.94,12.74-7.97,23.71-12.69,33.09-1.06,1.33-1.92,1.87-2.74,2.07,4.96-9.42,9.38-20.51,13.63-33.36"/><path id="path352" d="m4617.4,2751c0.51-0.23,0.74-0.54,1.64-1.4-3.67,12.81-7.42,23.75-12.03,33.12-1.09,0.83-1.6,1.17-2.3,1.37,4.72-9.38,8.75-20.35,12.69-33.09"/><path id="path354" d="m4619.1,2749.6c0.51-0.51,0.9-0.94,1.84-1.92-3.44,12.85-6.92,23.71-11.37,33.01-1.09,0.98-1.76,1.48-2.5,2.03,4.61-9.37,8.36-20.31,12.03-33.12"/><path id="path356" d="m4620.9,2747.7c0.58-0.66,0.98-1.21,1.87-2.29-3.16,12.96-6.36,23.58-10.62,32.76-1.1,1.13-1.8,1.81-2.62,2.54,4.45-9.3,7.93-20.16,11.37-33.01"/><path id="path358" d="m4622.8,2745.4c0.63-0.75,1.14-1.18,1.92-2.4-2.97,12.9-5.82,23.32-9.92,32.23-0.98,1.37-1.8,2.03-2.62,2.93,4.26-9.18,7.46-19.8,10.62-32.76"/><path id="path360" d="m4624.7,2743c0.47,0.24,0.54,0.98,1.6-1.36-4.18,10.08-7.19,20.47-9.02,31.13-1.33,2.2-1.68,2.2-2.5,2.46,4.1-8.91,6.95-19.33,9.92-32.23"/><path id="path362" d="m4626.3,2741.6c0.78-1.72,1.37-2.7,2.3-5.16-3.71,10.12-6.4,20.43-8.04,31.02-1.41,2.85-2.35,3.75-3.28,5.27,1.83-10.66,4.84-21.05,9.02-31.13"/><path id="path364" d="m4628.6,2736.5c0.94-2.58,1.8-5.19,2.66-7.76-2.7,14.32-4.77,24.87-7.07,31.94-0.47,1.33-7.11,13.75-3.63,6.84,1.64-10.59,4.33-20.9,8.04-31.02"/><path id="path366" d="m4631.2,2728.7c0,1.39,0.7,0.1,0.59,1.68-1.64,9.32-3.52,18.58-5.24,27.96-0.58,0-1.76,2.14-2.42,2.3,2.3-7.07,4.37-17.62,7.07-31.94"/><path id="path368" d="m4599.9,2786.9c0.35-0.73,1.06-0.98,2.11-0.78-5.31,10.23-12.03,19.41-20.19,27.62-1.06-0.43-2.03-0.51-2.89,0,7.73-6.06,14.61-15.04,20.97-26.8"/><path id="path370" d="m4602,2786.2c0.82-0.2,1.68-0.77,2.74-2.07-4.96,10-11.33,21.76-19.38,28.59-1.33,0.55-2.38,1.06-3.55,1.1,8.16-8.21,14.88-17.39,20.19-27.62"/><path id="path372" d="m4604.7,2784.1c0.7-0.2,1.21-0.54,2.3-1.37-4.92,10.17-10.19,20.51-18.36,28.49-1.33,0.81-2.34,1.04-3.32,1.47,8.05-6.83,14.42-18.63,19.38-28.59"/><path id="path374" d="m4607,2782.7c0.74-0.55,1.41-1.01,2.5-2.03-4.8,10-9.76,19.77-17.23,28.24-1.36,1.06-2.53,1.64-3.63,2.28,8.17-7.98,13.44-18.29,18.36-28.49"/><path id="path376" d="m4609.5,2780.7c0.82-0.73,1.52-1.41,2.62-2.54-4.49,9.77-9.42,19.15-15.94,27.7-1.44,1.32-2.69,2.14-3.91,3.08,7.47-8.47,12.43-18.24,17.23-28.24"/><path id="path378" d="m4612.2,2778.1c0.82-0.9,1.6-1.56,2.62-2.93-4.26,9.3-8.87,18.28-14.42,26.92-1.56,1.48-2.89,2.53-4.14,3.71,6.52-8.55,11.45-17.93,15.94-27.7"/><path id="path380" d="m4614.8,2775.2c0.82-0.26,1.17-0.26,2.5-2.46-3.44,8.87-8.17,16.99-12.54,25.35-1.72,2.42-3.21,2.94-4.38,4.03,5.55-8.64,10.16-17.62,14.42-26.92"/><path id="path382" d="m4617.3,2772.8c0.93-1.52,1.87-2.42,3.28-5.27-1.14,8.67-6.88,16.75-10.28,24.65-1.79,2.82-4.22,4.14-5.54,5.97,4.37-8.36,9.1-16.48,12.54-25.35"/><path id="path384" d="m4620.6,2767.5c-3.48,6.91,3.16-5.51,3.63-6.84-2.42,7.97-5.04,15.98-7.85,23.95-0.2,0.27-17.7,25.62-6.06,7.54,3.4-7.9,9.14-15.98,10.28-24.65"/><path id="path386" d="m4624.2,2760.6c0.66-0.16,1.84-2.3,2.42-2.3-0.94,5.04-1.68,9.92-3.36,16.25-1.6,2.54-5.51,7.11-6.91,10,2.81-7.97,5.43-15.98,7.85-23.95"/><path id="path388" d="m4578.9,2813.7c0.86-0.39,1.83-0.39,2.89,0-10,5.15-15.12,15.31-15.35,30.54-0.94-0.54-1.88-0.7-2.86-0.54,2.39-10.94,6.45-22.85,15.32-30.03"/><path id="path390" d="m4581.8,2813.8c1.17,0,2.22-0.51,3.55-1.1-6.68,5.55-12.26,18.28-15.58,31.03-0.98,0.22-2.47,0.77-3.32,0.61,0.23-15.23,5.35-25.39,15.35-30.51"/><path id="path392" d="m4585.4,2812.7c0.94-0.43,1.99-0.66,3.32-1.47-6.25,6-11.76,18.7-15.31,31.39-1.06,0.59-2.77,0.86-3.59,1.06,3.32-12.7,8.9-25.43,15.58-30.98"/><path id="path394" d="m4588.7,2811.2c1.06-0.64,2.27-1.22,3.63-2.28-5.78,6.49-11.13,18.99-14.88,31.56-1.13,0.86-3.12,1.65-4.06,2.11,3.55-12.69,9.06-25.39,15.31-31.39"/><path id="path396" d="m4592.3,2808.9c1.22-0.94,2.47-1.76,3.91-3.08-5.27,6.91-10.39,19.06-14.26,31.48-1.21,1.17-3.47,2.38-4.53,3.16,3.75-12.57,9.1-25.07,14.88-31.56"/><path id="path398" d="m4596.2,2805.8c1.25-1.18,2.58-2.23,4.14-3.71-4.69,7.26-9.41,18.82-13.36,30.85-1.33,1.49-3.9,3.25-5.04,4.34,3.87-12.42,8.99-24.57,14.26-31.48"/><path id="path400" d="m4600.4,2802.1c1.17-1.09,2.66-1.61,4.38-4.03-3.95,7.46-8.13,18.13-12.07,29.53-1.49,2.11-4.54,4.1-5.67,5.35,3.95-12.03,8.67-23.59,13.36-30.85"/><path id="path402" d="m4604.7,2798.1c1.32-1.83,3.75-3.15,5.54-5.97-3.08,7.18-6.64,16.71-10.78,27.69-1.48,2.5-5.62,6.06-6.83,7.81,3.94-11.4,8.12-22.07,12.07-29.53"/><path id="path404" d="m4610.3,2792.1c-11.64,18.08,5.9-7.27,6.06-7.54-2.46,6.79-5.59,15.43-9.96,26.25-0.71,1.32-15.39,22.07-6.88,8.98,4.14-10.98,7.7-20.51,10.78-27.69"/><path id="path406" d="m4616.3,2784.6c1.4-2.89,5.31-7.46,6.91-10-1.64,6.32-4.26,14.06-8.98,25-1.37,2.3-6.53,8.67-7.89,11.25,4.37-10.82,7.5-19.46,9.96-26.25"/><path id="path408" d="m4563.6,2843.8c0.94-0.16,1.92,0,2.86,0.54-2.97,12.46-3.52,24.89-0.63,29.92-0.59-0.35-1.05-0.85-1.52-1.44-3.32-4.61-3.36-16.72-0.71-29.02"/><path id="path410" d="m4566.4,2844.3c0.85,0.16,2.34-0.39,3.32-0.66-3.32,12.73-4.42,25.51-2.11,31.09-0.67,0-1.29-0.15-1.84-0.51-2.89-5.03-2.34-17.46,0.63-29.92"/><path id="path412" d="m4569.8,2843.7c0.82-0.25,2.53-0.52,3.59-1.11-3.56,12.74-5.12,25.47-3.52,31.68-0.78,0.32-1.52,0.47-2.18,0.47-2.31-5.58-1.21-18.36,2.11-31.04"/><path id="path414" d="m4573.4,2842.6c0.94-0.46,2.93-1.25,4.06-2.11-3.71,12.62-5.82,25.36-5.04,32.31-0.9,0.66-1.76,1.17-2.54,1.48-1.6-6.21,0-18.94,3.52-31.68"/><path id="path416" d="m4577.4,2840.5c1.06-0.78,3.32-1.99,4.53-3.16-3.86,12.38-6.48,25-6.75,32.93-0.98,1.02-1.92,1.88-2.82,2.54-0.78-6.95,1.33-19.69,5.04-32.31"/><path id="path418" d="m4582,2837.3c1.14-1.09,3.71-2.85,5.04-4.34-3.94,12.04-7.11,24.54-8.67,33.64-1.09,1.4-2.15,2.61-3.12,3.63,0.27-7.93,2.89-20.55,6.75-32.93"/><path id="path420" d="m4587,2833c1.13-1.25,4.18-3.24,5.67-5.35-3.99,11.45-7.82,23.71-10.98,34.34-1.17,1.76-2.3,3.32-3.36,4.65,1.56-9.1,4.73-21.6,8.67-33.64"/><path id="path422" d="m4592.7,2827.6c1.21-1.75,5.35-5.31,6.83-7.81-4.14,11.02-8.83,23.44-14.22,36.48-1.25,2.11-2.46,3.99-3.59,5.67,3.16-10.63,6.99-22.89,10.98-34.34"/><path id="path424" d="m4599.5,2819.8c-8.51,13.09,6.17-7.66,6.88-8.98-4.38,10.74-9.96,23.67-17.42,38.95-1.22,2.18-2.43,4.37-3.68,6.51,5.39-13.04,10.08-25.46,14.22-36.48"/><path id="path426" d="m4606.4,2810.8c1.36-2.58,6.52-8.95,7.89-11.25-4.73,10.86-11.56,24.88-21.72,43.67-1.17,2.12-2.34,4.26-3.59,6.53,7.46-15.28,13.04-28.21,17.42-38.95"/></g></g></g></g></g></g></g></g></g></g></g></g><g id="g428"><g id="g430" clip-path="url(#clipPath432)"><path id="path436" fill-rule="nonzero" fill="#FFF" d="m4770.3,2520.8s-16.4,87.89-7.85,148.36c8.59,60.43,19.34,103.36,39.73,126.91,20.35,23.55,14.18,101.45-14.42,29.06-28.59-72.42-26.36-83.04-27.89-99.65-1.48-16.6-7.11-86.25-2.26-146.32,4.84-60.08,8.24-65.71,8.24-65.71"/></g></g><g id="g438"><g id="g440" clip-path="url(#clipPath442)"><g id="g446" clip-path="url(#clipPath448)"><g id="g452" clip-path="url(#clipPath454)"><g id="g458" clip-path="url(#clipPath460)"><g id="g464" clip-path="url(#clipPath466)"><g id="g470" clip-path="url(#clipPath472)"><g id="g476" clip-path="url(#clipPath478)"><g id="g482" clip-path="url(#clipPath484)"><g id="g488" clip-path="url(#clipPath490)"><g id="g494" clip-path="url(#clipPath496)"><g id="g500" fill-rule="nonzero" fill="#100f0d" clip-path="url(#clipPath502)"><path id="path506" d="m4763.8,2532.9c0.23-1.71,0.47-3.28,0.66-4.73-0.15,10.16-1.01,20.23-2.65,30.31-0.36,0.9-0.71,1.99-1.1,3.13,1.17-12.5,2.19-21.8,3.09-28.71"/><path id="path508" d="m4764.5,2528.2c0.24-1.45,0.43-2.77,0.59-3.95-0.74,5.94-2.5,35.4-2.11,31.15-0.31,0.77-0.74,2.14-1.13,3.11,1.64-10.08,2.5-20.15,2.65-30.31"/><path id="path510" d="m4765.1,2524.2c0.19-1.17,0.35-2.22,0.54-3.16-0.46,3.63-2.53,42.19-1.64,31.68-0.31,0.59-0.7,1.88-1.01,2.63-0.39,4.25,1.37-25.21,2.11-31.15"/><path id="path512" d="m4765.6,2521.1c0.2-0.94,0.32-1.8,0.47-2.53,0-0.32-3.12,54.91-1.17,32.37-0.27,0.29-0.62,1.33-0.94,1.84-0.89,10.51,1.18-28.05,1.64-31.68"/><path id="path514" d="m4766.1,2518.5c0.16-0.71,0.32-1.38,0.39-1.92,0.63-4.69-4.18,72.03-0.78,33.63-0.23,0.13-0.5,0.39-0.78,0.66-1.99,22.54,1.21-32.69,1.17-32.37"/><path id="path516" d="m4766.5,2516.6c0.12-0.55,0.24-0.98,0.32-1.41-1.22,9.26,0.7,23.49-0.28,33.33-0.23,0.62-0.54,0.97-0.86,1.71-3.4,38.4,1.41-38.32,0.82-33.63"/><path id="path518" d="m4766.8,2515.2c0.15-0.35,0.19-0.62,0.27-0.94-1.09,8.48,1.33,22.03,0.31,31.93-0.27,0.69-0.54,1.51-0.86,2.34,1.02-9.84-0.9-24.07,0.28-33.29"/><path id="path520" d="m4767.1,2514.3c0.16-0.23,0.16-0.43,0.23-0.57-0.93,7.41,1.92,20.22,0.9,29.64-0.23,0.78-0.51,1.91-0.82,2.81,0.98-9.85-1.4-23.4-0.31-31.88"/><path id="path522" d="m4767.3,2513.7c0-0.16,0.16-0.25,0.16-0.32-0.78,5.5,2.62,17.89,1.64,25.62-0.27,1.09-0.51,3.13-0.86,4.34,1.02-9.42-1.83-22.23-0.9-29.64"/><path id="path524" d="m4767.5,2513.4,0-0.15c3.87,6.44,4.42,7.15,3.2,14.65-0.43,2.34-1.05,8.63-1.6,11.05,0.98-7.76-2.42-20.12-1.64-25.62"/><path id="path526" d="m4760.7,2561.6c0.39-1.1,0.74-2.23,1.1-3.13-1.06,11.49-1.92,22.97-2.5,34.49-0.36,1.02-0.9,4.34-1.29,5.51,0.54-12.34,1.56-24.61,2.69-36.87"/><path id="path528" d="m4761.8,2558.5c0.39-0.97,0.78-2.34,1.09-3.11-1.02,11.32-1.84,22.64-2.42,34.01-0.31,0.78-0.78,2.7-1.17,3.59,0.58-11.52,1.44-23,2.5-34.49"/><path id="path530" d="m4763,2555.4c0.31-0.75,0.7-2.04,1.01-2.63-1.01,11.29-1.83,22.58-2.42,33.91-0.31,0.58-0.74,1.99-1.05,2.73,0.58-11.37,1.4-22.69,2.42-34.01"/><path id="path532" d="m4764,2552.8c0.32-0.51,0.67-1.55,0.94-1.84-0.97,11.18-1.76,22.35-2.38,33.52-0.27,0.43-0.66,1.64-0.98,2.23,0.59-11.33,1.41-22.62,2.42-33.91"/><path id="path534" d="m4764.9,2550.9c0.28-0.27,0.55-0.58,0.82-0.66-0.78,10.95-1.56,21.88-2.34,32.81-0.24,0.35-0.55,0.94-0.86,1.37,0.62-11.17,1.41-22.34,2.38-33.52"/><path id="path536" d="m4765.7,2550.2c0.32-0.74,0.63-1.09,0.86-1.71-0.86,9.25-1.72,20.34-2.42,32.34-0.23,0.66-0.35,1.52-0.78,2.18,0.82-10.93,1.6-21.86,2.34-32.81"/><path id="path538" d="m4766.6,2548.5c0.32-0.83,0.63-1.65,0.86-2.39-0.86,8.94-1.8,19.89-2.62,31.76-0.23,0.79-0.42,2.18-0.66,2.97,0.7-12,1.56-23.09,2.42-32.34"/><path id="path540" d="m4767.4,2546.2c0.31-0.9,0.59-2.03,0.82-2.81-0.9,8.43-1.95,18.98-2.89,30.62-0.23,1.02-0.27,3.13-0.55,3.95,0.82-11.87,1.76-22.82,2.62-31.76"/><path id="path542" d="m4768.2,2543.3c0.31-1.18,0.59-3.25,0.86-4.34-0.98,7.62-2.19,17.54-3.32,28.79-0.23,1.48-0.19,5.16-0.43,6.17,0.94-11.64,1.99-22.19,2.89-30.62"/><path id="path544" d="m4769.1,2539c0.55-2.42,1.17-8.71,1.6-11.02-0.93,5.79-2.34,14.58-3.71,25.4-0.27,2.18-0.82,12.1-1.21,14.41,1.13-11.25,2.34-21.17,3.32-28.79"/><path id="path546" d="m4758,2598.5c0.35-1.17,0.93-4.49,1.33-5.51-0.59,12.08-0.83,24.47-0.86,36.61-0.43,1.79-0.82,8.79-1.14,10.82-0.15-13.64,0-27.85,0.67-41.92"/><path id="path548" d="m4759.3,2593c0.39-0.89,0.86-2.81,1.17-3.59-0.55,11.76-0.82,24.02-0.9,36.06-0.35,0.89-0.86,3.04-1.09,4.14,0-12.14,0.27-24.53,0.82-36.61"/><path id="path550" d="m4760.5,2589.4c0.31-0.74,0.74-2.15,1.05-2.73-0.54,11.83-0.9,24.29-1.01,36.56-0.32,0.48-0.67,1.57-0.94,2.23,0.16-12.04,0.35-24.3,0.9-36.06"/><path id="path552" d="m4761.6,2586.7c0.32-0.59,0.74-1.8,0.98-2.23-0.59,11.87-0.98,24.45-1.17,36.84-0.24,0.39-0.51,1.44-0.86,1.95,0.15-12.27,0.51-24.73,1.05-36.56"/><path id="path554" d="m4762.5,2584.4c0.31-0.43,0.62-0.98,0.86-1.37-0.67,11.89-1.13,24.5-1.37,36.96-0.19,0.31-0.39,0.86-0.66,1.25,0.19-12.39,0.58-24.97,1.17-36.84"/><path id="path556" d="m4763.4,2583.1c0.43-0.66,0.55-1.52,0.78-2.18-0.7,11.75-1.29,24.37-1.6,36.87-0.2,0.7-0.2,1.64-0.51,2.27,0.24-12.46,0.7-25.07,1.37-36.96"/><path id="path558" d="m4764.1,2580.9c0.24-0.79,0.43-2.18,0.66-2.97-0.78,11.6-1.48,24.18-1.87,36.68-0.31,0.97-0.2,2.54-0.39,3.16,0.35-12.5,0.9-25.12,1.6-36.87"/><path id="path560" d="m4764.8,2577.9c0.28-0.82,0.32-2.93,0.55-3.95-0.94,11.29-1.76,23.63-2.26,36.13-0.28,1.45,0,3.79-0.2,4.5,0.43-12.5,1.13-25.08,1.91-36.68"/><path id="path562" d="m4765.4,2574c0.27-1.01,0.2-4.69,0.43-6.17-1.05,10.82-2.07,22.85-2.77,35.27-0.16,1.37,0.23,6.06,0,7.03,0.54-12.5,1.37-24.84,2.26-36.13"/><path id="path564" d="m4765.8,2567.8c0.35-2.31,0.9-12.23,1.17-14.41-1.33,10.16-2.61,22.07-3.63,34.8-0.12,1.95-0.12,12.86-0.35,14.88,0.7-12.42,1.72-24.45,2.81-35.27"/><path id="path566" d="m4757.3,2640.4c0.32-2.03,0.75-9.03,1.18-10.82,0,12.42,0.19,24.61,0.58,35.82-0.43,3.04-0.39,12.38-0.55,15.54-0.58-12.22-1.05-26.05-1.21-40.54"/><path id="path568" d="m4758.5,2629.6c0.27-1.1,0.7-3.25,1.09-4.14-0.16,12.34,0,24.45,0.35,35.59-0.47,1.05-0.74,3.16-0.9,4.37-0.35-11.21-0.58-23.4-0.54-35.82"/><path id="path570" d="m4759.6,2625.4c0.27-0.66,0.62-1.72,0.94-2.23-0.16,12.62,0,24.96,0.23,36.25-0.27,0.35-0.62,1.05-0.82,1.57-0.31-11.14-0.43-23.25-0.35-35.59"/><path id="path572" d="m4760.6,2623.2c0.27-0.51,0.58-1.56,0.82-1.95-0.2,12.77-0.16,25.27,0.15,36.64-0.27,0.35-0.43,1.13-0.7,1.56-0.31-11.29-0.39-23.63-0.27-36.25"/><path id="path574" d="m4761.4,2621.3c0.27-0.39,0.47-0.89,0.66-1.25-0.27,12.77-0.27,25.36,0,36.79-0.23,0.32-0.31,0.78-0.55,1.1-0.31-11.37-0.31-23.91-0.15-36.64"/><path id="path576" d="m4762,2620c0.31-0.63,0.31-1.57,0.51-2.27-0.31,12.77-0.39,25.43-0.12,36.91-0.31,0.82-0.15,1.64-0.39,2.15-0.27-11.43-0.27-24.02,0-36.79"/><path id="path578" d="m4762.5,2617.8c0.23-0.62,0-2.19,0.35-3.16-0.39,12.7-0.59,25.39-0.31,37.03-0.16,1.4,0,2.69-0.16,3.04-0.27-11.48-0.19-24.14,0.12-36.91"/><path id="path580" d="m4762.9,2614.6c0.16-0.71-0.16-3.05,0.16-4.5-0.55,12.58-0.82,25.29-0.55,37.15-0.27,2.19,0.31,4.22,0,4.38-0.27-11.64-0.12-24.33,0.31-37.03"/><path id="path582" d="m4763.1,2610.1c0.15-0.97-0.24-5.66,0-7.03-0.71,12.35-1.06,25.04-0.86,37.27,0,1.25,0.47,6.05,0.35,6.91-0.24-11.86,0-24.57,0.54-37.15"/><path id="path584" d="m4763,2603.1c0.23-2.02,0.27-12.93,0.35-14.88-0.98,12.42-1.64,25.62-1.72,38.71,0.16,1.56,0.51,11.84,0.51,13.44-0.2-12.23,0.15-24.92,0.86-37.27"/><path id="path586" d="m4758.6,2681c0.16-3.16,0.12-12.5,0.55-15.54,0.28,11.01,0.82,22.04,1.64,33.04-0.62,4.11,0,12.85,0,17-0.66-8.48-1.48-20.43-2.15-34.5"/><path id="path588" d="m4759.1,2665.4c0.16-1.21,0.39-3.32,0.86-4.37,0.24,11.2,0.82,22.37,1.8,33.55-0.28,1.05-0.86,2.73-1.02,3.86-0.82-11-1.36-22.03-1.64-33.04"/><path id="path590" d="m4760,2661c0.2-0.48,0.55-1.22,0.82-1.57,0.47,17.85,0.7,18.67,2.07,33.98-0.31,0.75-0.7,1.14-1.09,1.14-0.98-11.18-1.6-22.35-1.8-33.55"/><path id="path592" d="m4760.8,2659.5c0.27-0.43,0.43-1.21,0.7-1.56,0.4,15.86,0.86,20.43,2.31,34.41-0.27,0.82-0.55,1.13-0.94,1.13-1.37-15.31-1.6-16.13-2.07-33.98"/><path id="path594" d="m4761.5,2657.9c0.28-0.32,0.36-0.78,0.55-1.1,0.35,14.53,1.06,21.25,2.62,34.53-0.27,0.82-0.47,0.98-0.82,0.98-1.49-13.98-1.95-18.55-2.35-34.41"/><path id="path596" d="m4762,2656.8c0.31-0.51,0.12-1.36,0.39-2.15,0.31,13.32,1.13,22.35,2.78,34.77-0.12,1.91-0.2,2.07-0.55,1.91-1.6-13.28-2.27-20-2.62-34.53"/><path id="path598" d="m4762.4,2654.7c0.12-0.31,0-1.64,0.16-3.04,0.27,12.15,1.17,23.04,2.89,34.76-0.24,1.25,0,2.78-0.27,3.05-1.65-12.42-2.47-21.45-2.78-34.77"/><path id="path600" d="m4762.6,2651.6c0.27-0.16-0.28-2.19,0-4.38,0.27,12.15,1.25,23.28,2.89,35-0.24,1.88,0.27,3.99,0,4.14-1.72-11.72-2.62-22.61-2.89-34.76"/><path id="path602" d="m4762.5,2647.2c0.12-0.86-0.35-5.66-0.35-6.91,0.11,8.32,0.62,24.65,2.77,35.94,0.2,1.09,0.51,5.15,0.43,5.97-1.6-11.72-2.58-22.85-2.85-35"/><path id="path604" d="m4762.2,2640.3c0-1.6-0.35-11.88-0.51-13.44,0,13.2,0.51,26.33,1.99,38.49,0.43,1.2,1.14,9.57,1.33,10.89-2.15-11.29-2.66-27.62-2.77-35.94"/><path id="path606" d="m4760.7,2715.4c0-4.15-0.58-12.89,0-17,0.94,10.12,1.92,20.28,2.93,30.39-0.39,0.67-1.01,4.54-1.48,5.2-0.47-6.21-0.98-12.38-1.49-18.59"/><path id="path608" d="m4760.7,2698.4c0.16-1.13,0.74-2.81,1.02-3.86,0.9,10.97,2.26,21.87,3.51,32.81-0.47,0.35-1.05,1.17-1.6,1.44-1.01-10.11-1.99-20.27-2.93-30.39"/><path id="path610" d="m4761.8,2694.6c0.39,0,0.78-0.39,1.09-1.14,0.98,11.34,2.31,22.59,3.99,33.79-0.47,0.55-1.02,0.47-1.57,0.16-1.25-10.94-2.57-21.84-3.51-32.81"/><path id="path612" d="m4762.8,2693.4c0.39,0,0.67-0.31,0.94-1.13,1.09,11.64,2.58,23.2,4.49,34.77-0.43,0.39-0.9,0.43-1.44,0.15-1.68-11.2-3.01-22.45-3.99-33.79"/><path id="path614" d="m4763.8,2692.3c0.39,0,0.59-0.16,0.86-0.98,1.17,11.84,2.81,23.64,4.96,35.36-0.47,0.43-0.82,0.54-1.33,0.31-1.91-11.49-3.4-23.05-4.49-34.69"/><path id="path616" d="m4764.6,2691.3c0.39,0.2,0.47,0,0.55-1.91,1.44,12.07,3.24,24.06,5.42,36.02-0.27,1.25-0.5,1.64-1.01,1.21-2.11-11.71-3.79-23.48-4.96-35.32"/><path id="path618" d="m4765.2,2689.4c0.23-0.27,0-1.8,0.27-3.05,1.6,12.23,3.55,24.38,5.78,36.53-0.39,0.74-0.2,2.57-0.63,2.54-2.18-11.96-3.98-23.95-5.39-36.02"/><path id="path620" d="m4765.5,2686.4c0.19-0.15-0.27-2.26,0-4.14,1.72,12.23,3.67,24.42,5.9,36.56-0.28,1.41,0.23,4.15-0.12,4.11-2.23-12.15-4.18-24.3-5.78-36.53"/><path id="path622" d="m4765.4,2682.2c0-0.82-0.27-4.88-0.43-5.97,1.68,12.14,3.59,24.41,5.94,36.52,0,1.05,0.58,5.23,0.43,6.01-2.23-12.14-4.18-24.33-5.94-36.56"/><path id="path624" d="m4765,2676.3c-0.23-1.32-0.9-9.69-1.33-10.89,1.84,15.46,4.53,30.92,7.54,46.2,0-1.37-0.19,2.54-0.31,1.21-2.31-12.11-4.22-24.38-5.9-36.52"/><path id="path626" d="m4762.2,2734c0.47-0.66,1.09-4.53,1.48-5.2,0.63,6.37,1.21,12.78,3.32,22.2-1.48-2.5-1.09,1.41-2.61-1.22-1.37-6.48-1.84-11.37-2.19-15.78"/><path id="path628" d="m4763.7,2728.8c0.55-0.27,1.13-1.09,1.6-1.44,0.71,6.83,1.41,13.48,3.56,22.98-0.51,0.46-1.13,0.77-1.84,0.66-2.11-9.42-2.69-15.83-3.32-22.2"/><path id="path630" d="m4765.3,2727.4c0.55,0.31,1.1,0.39,1.57-0.16,1.68,7.82,3.04,15.67,4.02,23.6-0.59,0.46-1.29-0.12-2.03-0.46-2.15-9.5-2.85-16.15-3.56-22.98"/><path id="path632" d="m4766.8,2727.2c0.54,0.28,1.01,0.24,1.44-0.23,1.21,8.24,2.7,16.37,4.53,24.45-0.51,0.39-1.29-0.26-1.95-0.62-0.98-7.93-2.34-15.78-4.02-23.6"/><path id="path634" d="m4768.3,2727c0.55,0.23,0.86,0.15,1.33-0.31,1.29,8.47,3.01,16.95,5.08,25.31-0.55,0.47-1.21-0.28-1.88-0.55-1.83-8.08-3.32-16.21-4.53-24.37"/><path id="path636" d="m4769.6,2726.7c0.51,0.43,0.74,0,1.01-1.21,1.49,8.94,3.4,17.89,5.71,26.64-0.39,1.17-0.94,0.39-1.64-0.16-2.07-8.36-3.79-16.8-5.08-25.31"/><path id="path638" d="m4770.6,2725.4c0.4,0,0.24-1.8,0.63-2.54,1.76,9.65,3.91,19.18,6.45,28.67-0.51,0.62-0.86,0.55-1.37,0.51-2.31-8.75-4.22-17.7-5.71-26.64"/><path id="path640" d="m4771.2,2722.9c0.31,0-0.2-2.7,0.12-4.11,2.07,10.67,4.49,21.18,7.34,31.65-0.47,1.01-0.51,1.25-0.98,1.13-2.53-9.49-4.68-19.02-6.44-28.67"/><path id="path642" d="m4771.3,2718.8c0.15-0.78-0.51-4.96-0.43-6.01,2.22,11.72,4.92,23.32,8.12,34.8-0.19,0.75-0.15,2.36-0.35,2.86-2.85-10.47-5.27-20.98-7.34-31.65"/><path id="path644" d="m4770.9,2712.8c0.16,1.37,0.23-2.58,0.31-1.21,2.97,14.88,6.21,28.28,10.04,40.15-0.55-2.46-1.6-1.64-2.19-4.14-3.2-11.48-5.9-23.08-8.16-34.8"/><path id="path646" d="m4764.4,2749.8c1.52,2.63,1.13-1.28,2.61,1.22,1.76,8,4.61,18.16,9.46,32.3-2.5-4.96-3.05-4.18-5.59-9.34-3.28-10.27-5.24-18.01-6.48-24.18"/><path id="path648" d="m4767,2751c0.71,0.16,1.33-0.2,1.84-0.66,1.83,8.11,4.76,18.35,9.69,32.64-0.47,0.82-1.18,0.9-2.07,0.32-4.85-14.14-7.7-24.34-9.46-32.3"/><path id="path650" d="m4768.8,2750.4c0.74,0.34,1.44,0.92,2.03,0.46,1.99,8.24,5,18.51,10,32.77-0.7,0.31-1.48-0.2-2.34-0.59-4.93-14.29-7.86-24.53-9.69-32.64"/><path id="path652" d="m4770.9,2750.8c0.66,0.36,1.44,1.01,1.95,0.62,2.15,8.33,5.35,18.52,10.39,32.62-0.7,0.27-1.52-0.24-2.34-0.47-5-14.26-8.01-24.49-10-32.77"/><path id="path654" d="m4772.8,2751.5c0.67,0.27,1.33,0.99,1.88,0.55,2.3,8.32,5.62,18.4,10.74,32.22-0.7,0.4-1.45,0-2.23-0.19-5.04-14.06-8.24-24.25-10.39-32.58"/><path id="path656" d="m4774.7,2752c0.7,0.47,1.25,1.25,1.64,0.12,2.46,8.39,5.94,18.25,11.13,31.75-0.55,1.07-1.21,0.55-2.03,0.39-5.12-13.82-8.44-23.89-10.74-32.18"/><path id="path658" d="m4776.3,2752.1c0.55,0,0.86,0.11,1.37-0.51,2.61,8.63,6.21,18.24,11.48,31.3-0.51,0.96-0.98,0.89-1.72,0.96-5.19-13.51-8.67-23.36-11.13-31.75"/><path id="path660" d="m4777.7,2751.6c0.46,0.15,0.5-0.12,0.97-1.13,2.85,9.34,6.56,18.78,11.95,31.05-0.5,1.52-0.7,1.41-1.44,1.38-5.27-13.06-8.91-22.67-11.48-31.3"/><path id="path662" d="m4778.7,2750.4c0.24-0.5,0.16-2.11,0.35-2.86,3.25,11.21,7.23,21.33,12.54,32.27-0.31,0.9-0.7,0.86-0.94,1.6-5.39-12.23-9.1-21.67-11.95-31.01"/><path id="path664" d="m4779,2747.6c0.63,2.5,1.64,1.68,2.19,4.14,4.02,12.54,8.63,23.29,14.06,32.31-1.01-1.21-2.65-2.93-3.71-4.18-5.31-10.94-9.29-21.06-12.54-32.27"/><path id="path666" d="m4770.9,2774c2.54,5.16,3.09,4.38,5.59,9.34,3.86,11.36,8,22.61,12.38,33.79-2.42-2.5-3.28-4.11-5.28-7.23-5.58-14.73-9.68-26.41-12.69-35.9"/><path id="path668" d="m4776.4,2783.3c0.85,0.58,1.6,0.54,2.07-0.32,4.06,11.88,8.75,23.48,13.32,35.16-0.82,0.23-2.04-0.16-3.01-1.05-4.38-11.18-8.52-22.43-12.38-33.75"/><path id="path670" d="m4778.5,2783c0.86,0.39,1.64,0.9,2.34,0.59,4.18,11.87,9.18,23.36,13.87,35.09-0.9,0-1.88-0.25-2.89-0.52-4.57-11.68-9.26-23.28-13.32-35.16"/><path id="path672" d="m4780.9,2783.6c0.82,0.23,1.68,0.74,2.34,0.43,4.22,11.84,9.61,23.05,14.3,34.66-0.94,0.14-1.88-0.13-2.77,0-4.69-11.69-9.69-23.18-13.87-35.05"/><path id="path674" d="m4783.2,2784.1c0.78,0.12,1.53,0.58,2.23,0.15,4.34,11.65,10,22.54,14.73,34.03-0.94,0.19-1.8,0.35-2.66,0.47-4.69-11.64-10.08-22.85-14.3-34.65"/><path id="path676" d="m4785.4,2784.2c0.82,0.16,1.48,0.67,2.03-0.39,4.42,11.49,10.43,22,15.16,33.32-0.9,0.55-1.64,0.9-2.46,1.1-4.73-11.49-10.39-22.38-14.73-34.03"/><path id="path678" d="m4787.5,2783.8c0.74,0,1.21,0,1.72-0.96,4.57,11.28,10.98,21.35,15.66,32.6-0.82,0.67-1.48,1.22-2.22,1.68-4.73-11.32-10.74-21.83-15.16-33.32"/><path id="path680" d="m4789.2,2782.9c0.74,0,0.9,0.14,1.44-1.42,4.81,11.02,11.72,20.67,16.29,31.8-0.66,1.21-1.36,1.6-2.07,2.19-4.68-11.25-11.09-21.29-15.66-32.57"/><path id="path682" d="m4790.6,2781.5c0.28-0.74,0.67-0.7,0.94-1.6,5.08,10.35,12.93,20,17.23,30.82-0.55,1.02-1.37,1.61-1.88,2.58-4.57-11.13-11.48-20.74-16.29-31.8"/><path id="path684" d="m4791.6,2779.9c1.06,1.25,2.7,2.97,3.71,4.18,5.59,9.3,12.97,16.37,16.45,27-0.78,0.11-2.07-0.4-2.93-0.36-4.3-10.82-12.15-20.47-17.23-30.82"/><path id="path686" d="m4783.6,2809.9c2,3.12,2.86,4.73,5.28,7.23,4.53,11.99,9.65,23.75,15.35,35.23-0.7-0.7-1.45-1.52-2.23-2.57-8.75-11.45-13.28-26.45-18.4-39.89"/><path id="path688" d="m4788.8,2817.1c0.97,0.97,2.19,1.28,3.01,1.05,4.68,12.03,9.45,23.98,14.37,35.9-0.66-0.43-1.33-0.98-2.03-1.72-5.7-11.48-10.82-23.24-15.35-35.23"/><path id="path690" d="m4791.8,2818.2c1.01,0.27,1.99,0.55,2.89,0.47,4.8,11.99,9.25,24.06,13.32,36.3-0.59-0.16-1.17-0.44-1.84-0.87-4.92-11.92-9.69-23.91-14.37-35.9"/><path id="path692" d="m4794.7,2818.7c0.89,0,1.83,0.14,2.77,0,4.88,11.78,8.95,23.89,12.23,36.36-0.55,0.11-1.1,0-1.68-0.16-4.07-12.23-8.52-24.34-13.32-36.29"/><path id="path694" d="m4797.5,2818.7c0.86-0.16,1.72-0.28,2.66-0.47,4.88,11.64,8.55,23.71,11.01,36.21-0.47,0.32-0.94,0.55-1.44,0.62-3.28-12.42-7.35-24.57-12.23-36.36"/><path id="path696" d="m4800.2,2818.3c0.82-0.2,1.6-0.55,2.46-1.1,4.88,11.49,8.12,23.52,9.8,36.1-0.39,0.51-0.82,0.9-1.25,1.21-2.46-12.5-6.13-24.57-11.01-36.21"/><path id="path698" d="m4802.6,2817.2c0.74-0.46,1.4-1.01,2.22-1.71,4.81,11.4,7.7,23.39,8.64,36.01-0.32,0.67-0.67,1.29-1.06,1.8-1.68-12.58-4.92-24.61-9.8-36.1"/><path id="path700" d="m4804.8,2815.4c0.71-0.59,1.41-0.98,2.07-2.19,4.69,11.33,7.15,23.32,7.43,35.86-0.28,0.86-0.55,1.64-0.86,2.34-0.94-12.62-3.83-24.61-8.64-36.01"/><path id="path702" d="m4806.9,2813.3c0.51-0.97,1.33-1.56,1.88-2.58,4.49,11.25,6.56,23.16,6.21,35.66-0.2,0.98-0.39,1.92-0.66,2.78-0.28-12.54-2.74-24.53-7.43-35.86"/><path id="path704" d="m4808.8,2810.7c0.86,0,2.15,0.43,2.93,0.36,3.51,10.66,4.73,23.16,3.75,32.14-0.16,1.09-0.27,2.15-0.47,3.16,0.35-12.5-1.72-24.41-6.17-35.7"/></g></g></g></g></g></g></g></g></g></g></g></g><g id="g706"><g id="g708" fill-rule="nonzero" clip-path="url(#clipPath710)"><path id="path714" fill="#FFF" d="m4632.7,2452.5c17.26,20.11,21.87,44.88,10.27,55.36-11.64,10.46-34.96,2.53-52.27-17.59-17.18-20.16-21.79-44.91-10.19-55.31,11.6-10.51,34.96-2.58,52.19,17.54"/><path id="path716" fill="#211c1d" d="m4616.4,2445.9c7.85,9.18,10.43,20,5.74,24.21-4.69,4.22-14.88,0.29-22.7-8.89-7.85-9.19-10.43-20-5.7-24.23,4.69-4.26,14.84-0.24,22.66,8.91"/><path id="path718" fill="#FFF" d="m4750.4,2429.8c17.23,20.11,21.84,44.87,10.23,55.34-11.6,10.43-34.96,2.58-52.22-17.57-17.23-20.11-21.84-44.89-10.24-55.32,11.61-10.47,34.96-2.58,52.23,17.55"/><path id="path720" fill="#211c1d" d="m4734,2423.1c7.89,9.18,10.43,20.04,5.75,24.22-4.69,4.26-14.89,0.27-22.7-8.91-7.85-9.14-10.39-20-5.7-24.22,4.68-4.21,14.84-0.23,22.65,8.91"/></g></g><path id="path722" stroke-linejoin="miter" d="m9323.9,1821.4,329.88,17.81" stroke="#000" stroke-linecap="butt" stroke-miterlimit="4" stroke-dasharray="none" stroke-width="83.3125" fill="none"/><path id="path724" stroke-linejoin="miter" d="m9336.8,1505.3,329.88,17.81" stroke="#000" stroke-linecap="butt" stroke-miterlimit="4" stroke-dasharray="none" stroke-width="83.3125" fill="none"/><path id="path726" stroke-linejoin="miter" d="M9247,892.28,9572.7,837.32" stroke="#000" stroke-linecap="butt" stroke-miterlimit="4" stroke-dasharray="none" stroke-width="83.3125" fill="none"/><path id="path728" stroke-linejoin="miter" d="m9032.7,427.01,283-170.43" stroke="#000" stroke-linecap="butt" stroke-miterlimit="4" stroke-dasharray="none" stroke-width="83.3125" fill="none"/><path id="path730" stroke-linejoin="miter" d="M9193.6,702.88,9476.6,532.48" stroke="#000" stroke-linecap="butt" stroke-miterlimit="4" stroke-dasharray="none" stroke-width="83.3125" fill="none"/><path id="path732" stroke-linejoin="miter" d="M8651.5,90.883,8800.3,385.84" stroke="#000" stroke-linecap="butt" stroke-miterlimit="4" stroke-dasharray="none" stroke-width="83.3125" fill="none"/><path id="path734" stroke-linejoin="miter" d="m8381.3,254.9,160.51,288.75" stroke="#000" stroke-linecap="butt" stroke-miterlimit="4" stroke-dasharray="none" stroke-width="83.3125" fill="none"/><path id="path736" stroke-linejoin="miter" d="m8277.6,2169.4s-57.46-1896.6,1183.9-1011.5" stroke="#90b14e" stroke-linecap="round" stroke-miterlimit="4" stroke-dasharray="none" stroke-width="360" fill="none"/><path id="path738" fill-rule="nonzero" fill="#000" d="m8335.4,2238.4c0-17.62-13.01-31.92-29.06-31.92-16.06,0-29.07,14.3-29.07,31.92s13.01,31.91,29.07,31.91c16.05,0,29.06-14.29,29.06-31.91"/><g id="g740" transform="scale(0.92441,-1.07559)"><path id="path742" stroke-linejoin="miter" d="m9017-2081.1c0,16.38-14.07,29.67-31.43,29.67-17.37,0-31.45-13.29-31.45-29.67s14.08-29.67,31.45-29.67c17.36,0,31.43,13.29,31.43,29.67z" stroke="#000" stroke-linecap="round" stroke-miterlimit="4" stroke-dasharray="none" stroke-width="1.62039" fill="none"/></g><path id="path744" fill-rule="nonzero" fill="#000" d="m8220.5,2221.2c0-17.65-13.01-31.95-29.02-31.95-16.06,0-29.07,14.3-29.07,31.95,0,17.62,13.01,31.92,29.07,31.92,16.01,0,29.02-14.3,29.02-31.92"/><g id="g746" transform="scale(0.92441,-1.07559)"><path id="path748" stroke-linejoin="miter" d="m8892.7-2065c0,16.41-14.06,29.7-31.4,29.7-17.36,0-31.43-13.29-31.43-29.7,0-16.39,14.07-29.67,31.43-29.67,17.34,0,31.4,13.28,31.4,29.67z" stroke="#000" stroke-linecap="round" stroke-miterlimit="4" stroke-dasharray="none" stroke-width="1.62039" fill="none"/></g><path id="path750" fill-rule="nonzero" fill="#f06200" d="m7352.3,2140.7c0-53.98-41.17-97.69-91.95-97.69s-91.95,43.71-91.95,97.69c0,53.95,41.17,97.7,91.95,97.7s91.95-43.75,91.95-97.7"/><path id="path752" fill-rule="nonzero" fill="#f06200" d="m7685.7,2054.5c0-53.94-41.17-97.69-91.95-97.69s-91.95,43.75-91.95,97.69c0,53.95,41.17,97.7,91.95,97.7s91.95-43.75,91.95-97.7"/><path id="path754" fill-rule="nonzero" fill="#f06200" d="m7858.1,1841.8c0-53.95-41.18-97.7-91.96-97.7s-91.95,43.75-91.95,97.7c0,53.98,41.17,97.69,91.95,97.69s91.96-43.71,91.96-97.69"/><path id="path756" fill-rule="nonzero" fill="#f06200" d="m8047.7,1726.9c0-53.98-41.17-97.73-91.95-97.73s-91.95,43.75-91.95,97.73c0,53.95,41.17,97.7,91.95,97.7s91.95-43.75,91.95-97.7"/><path id="path758" fill-rule="nonzero" fill="#f06200" d="m7783.4,1468.3c0-53.98-41.17-97.69-91.95-97.69-50.79,0-91.96,43.71-91.96,97.69,0,53.95,41.17,97.7,91.96,97.7,50.78,0,91.95-43.75,91.95-97.7"/><path id="path760" fill-rule="nonzero" fill="#f06200" d="m7484.5,1313.1c0-53.95-41.17-97.7-91.95-97.7s-91.96,43.75-91.96,97.7c0,53.98,41.18,97.73,91.96,97.73s91.95-43.75,91.95-97.73"/><path id="path762" fill-rule="nonzero" fill="#f06200" d="m7254.6,1123.4c0-53.95-41.17-97.7-91.95-97.7-50.82,0-91.96,43.75-91.96,97.7,0,53.98,41.14,97.69,91.96,97.69,50.78,0,91.95-43.71,91.95-97.69"/><path id="path764" stroke-linejoin="miter" d="m8157,2129.2s-28.75-2023,1413.8-1017.3" stroke="#6a4a1e" stroke-linecap="butt" stroke-miterlimit="4" stroke-dasharray="none" stroke-width="42.4" fill="none"/><path id="path766" stroke-linejoin="miter" d="m8360.2,2172.5s-22.35-1792.5,1099.3-901.37" stroke="#6a4a1e" stroke-linecap="butt" stroke-miterlimit="4" stroke-dasharray="none" stroke-width="41.5712" fill="none"/><path id="path768" stroke-linejoin="miter" d="m8258.6,2141.9s-25.66-1894.3,1262.3-952.5" stroke="#6a4a1e" stroke-linecap="butt" stroke-miterlimit="4" stroke-dasharray="none" stroke-width="38.768" fill="none"/></g></g></svg>
